<svg width="28" height="28" viewBox="0 0 28 28" fill="none" xmlns="http://www.w3.org/2000/svg">
<path fill-rule="evenodd" clip-rule="evenodd" d="M0.666504 8.61065C0.666504 4.23023 4.23024 0.666504 8.61068 0.666504H19.3891C23.7694 0.666504 27.3332 4.23023 27.3333 8.61065V19.389C27.3333 23.7694 23.7695 27.3332 19.3891 27.3332H8.61068C4.23024 27.3332 0.666504 23.7694 0.666504 19.389V8.61065ZM3.34687 8.60799V19.3864C3.34687 22.2922 5.70255 24.6478 8.60837 24.6478H19.3868C22.2926 24.6478 24.6482 22.2922 24.6482 19.3864V8.60799C24.6482 5.70213 22.2926 3.34651 19.3868 3.34651H8.60837C5.70255 3.34651 3.34687 5.70213 3.34687 8.60799ZM14.2636 21.1605C10.4607 21.1605 7.36667 18.0665 7.36667 14.2636C7.36667 10.4607 10.4607 7.36669 14.2636 7.36669C18.0666 7.36669 21.1606 10.4606 21.1606 14.2636C21.1606 18.0666 18.0666 21.1605 14.2636 21.1605ZM14.2612 10.0467C11.9338 10.0467 10.0469 11.9335 10.0469 14.261C10.0469 16.5885 11.9337 18.4753 14.2612 18.4753C16.5887 18.4753 18.4755 16.5885 18.4755 14.261C18.4755 11.9335 16.5887 10.0467 14.2612 10.0467ZM19.4269 7.67937C19.4269 8.59217 20.1667 9.33207 21.0795 9.33207C21.9923 9.33207 22.7322 8.59217 22.7322 7.67937C22.7322 6.76671 21.9923 6.02676 21.0795 6.02676C20.1667 6.02676 19.4269 6.76671 19.4269 7.67937Z" fill="white"/>
</svg>
