<svg width="1084" height="355" viewBox="0 0 1084 355" fill="none" xmlns="http://www.w3.org/2000/svg">
<path d="M24.3419 22.479C22.7995 23.6441 22.4936 25.839 23.6587 27.3814C24.8238 28.9238 27.0187 29.2297 28.5611 28.0646L24.3419 22.479ZM11.9336 70.0803L15.3711 70.7389L15.418 70.4943L15.4297 70.2456L11.9336 70.0803ZM4.90886 116.775L1.42441 116.446L1.41464 116.549L1.41101 116.653L4.90886 116.775ZM3.50391 156.867L0.00605345 156.745L-0.00200319 156.975L0.0201004 157.204L3.50391 156.867ZM12.402 212.524L9.01376 213.402C9.09834 213.728 9.22968 214.041 9.40371 214.33L12.402 212.524ZM46.1209 269.124L43.1051 270.901L43.1484 270.974L43.1952 271.045L46.1209 269.124ZM65.3219 298.368L62.3962 300.289L62.6233 300.635L62.9247 300.918L65.3219 298.368ZM127.14 341.29L125.601 344.433L125.955 344.606L126.339 344.697L127.14 341.29ZM209.564 341.29L210.4 344.688L211.282 344.471L211.947 343.853L209.564 341.29ZM240.005 312.989L242.388 315.553L242.405 315.536L242.423 315.52L240.005 312.989ZM276.533 278.086L278.951 280.617L279.214 280.366L279.419 280.067L276.533 278.086ZM302.759 239.881L305.645 241.861L305.834 241.586L305.967 241.281L302.759 239.881ZM321.492 196.959L324.7 198.359L324.992 197.69V196.959H321.492ZM321.492 145.076H324.992V144.925L324.979 144.775L321.492 145.076ZM317.745 101.682L314.3 101.064L314.218 101.521L314.258 101.983L317.745 101.682ZM324.77 62.5337L321.832 60.6313L321.45 61.2224L321.325 61.9156L324.77 62.5337ZM358.489 23.3853L356.853 20.2912L356.481 20.4879L356.166 20.7672L358.489 23.3853ZM400.638 6.87689L400.313 3.39201L399.995 3.42165L399.688 3.50828L400.638 6.87689ZM453.089 9.7069L454.183 6.38208L453.968 6.31147L453.746 6.26906L453.089 9.7069ZM495.238 29.9886L498.194 28.1138L497.794 27.4841L497.173 27.0719L495.238 29.9886ZM510.224 71.0237L513.667 71.6517L513.78 71.0361L513.672 70.4197L510.224 71.0237ZM499.921 116.776L496.541 115.867L496.515 115.966L496.494 116.067L499.921 116.776ZM490.555 183.281L487.064 183.03L487.046 183.283L487.064 183.536L490.555 183.281ZM492.896 215.354L489.406 215.609L489.432 215.965L489.529 216.309L492.896 215.354ZM524.274 281.388L521.419 283.412L521.6 283.668L521.824 283.887L524.274 281.388ZM565.486 312.989L563.658 315.974L563.831 316.08L564.014 316.165L565.486 312.989ZM617.001 330.913L616.146 334.307L616.567 334.413H617.001V330.913ZM657.276 330.913V334.413H658.184L658.977 333.972L657.276 330.913ZM688.653 313.461L690.355 316.52L690.753 316.298L691.082 315.982L688.653 313.461ZM720.967 282.331L723.396 284.852L723.705 284.553L723.933 284.189L720.967 282.331ZM751.408 233.749L754.374 235.608L754.644 235.177L754.78 234.687L751.408 233.749ZM767.799 174.791L764.785 173.013L764.551 173.409L764.427 173.853L767.799 174.791ZM795.898 127.152L793.329 124.775L793.074 125.051L792.884 125.374L795.898 127.152ZM834.3 85.6454L832.349 82.7397L832.009 82.9679L831.731 83.2685L834.3 85.6454ZM885.347 56.8736L884.777 53.4204L884.315 53.4966L883.89 53.6913L885.347 56.8736ZM944.824 56.8736L946.34 53.7191L945.869 53.4926L945.352 53.4137L944.824 56.8736ZM986.036 76.6837L988.597 74.299L988.147 73.8154L987.552 73.5292L986.036 76.6837ZM1014.13 106.87L1017.38 105.559L1017.14 104.959L1016.7 104.486L1014.13 106.87ZM1035.68 160.169L1039.18 160.065L1039.16 159.438L1038.92 158.857L1035.68 160.169ZM1037.08 207.336L1033.58 207.44L1033.59 207.61L1033.61 207.779L1037.08 207.336ZM1043.17 254.974L1039.7 255.418L1039.8 256.234L1040.26 256.917L1043.17 254.974ZM1076.79 311.631C1077.86 313.239 1080.03 313.672 1081.64 312.599C1083.25 311.525 1083.68 309.352 1082.61 307.744L1076.79 311.631ZM6.78213 96.9654L3.34467 96.3067L3.31335 96.4702L3.29768 96.6359L6.78213 96.9654ZM6.78213 190.827L3.29833 191.164L3.32482 191.438L3.39395 191.705L6.78213 190.827ZM29.7297 241.296L32.7455 239.52L32.7368 239.505L32.728 239.49L29.7297 241.296ZM93.421 324.781L91.0238 327.331L91.4082 327.693L91.882 327.925L93.421 324.781ZM169.289 351.195L168.488 354.602L169.307 354.794L170.124 354.593L169.289 351.195ZM476.037 17.2536L477.972 14.3368L477.578 14.0761L477.13 13.9288L476.037 17.2536ZM425.927 4.51855L426.584 1.08071L426.096 0.987592L425.602 1.03367L425.927 4.51855ZM377.222 13.4802L376.272 10.1116L375.914 10.2125L375.586 10.3861L377.222 13.4802ZM338.82 40.837L336.497 38.2189L336.141 38.5349L335.882 38.9346L338.82 40.837ZM506.009 46.9687L509.457 46.3646L509.337 45.6804L508.965 45.0938L506.009 46.9687ZM506.009 94.1355L509.389 95.0444L509.427 94.9052L509.453 94.7634L506.009 94.1355ZM492.896 150.736L489.469 150.027L489.422 150.253L489.405 150.484L492.896 150.736ZM503.199 251.673L499.832 252.628L499.997 253.207L500.345 253.697L503.199 251.673ZM541.602 298.368L539.152 300.868L539.435 301.145L539.774 301.353L541.602 298.368ZM588.902 323.838L587.43 327.014L587.729 327.152L588.047 327.232L588.902 323.838ZM859.59 68.6654L858.133 65.483L857.874 65.6013L857.639 65.7596L859.59 68.6654ZM913.915 52.157L914.443 48.6971L913.893 48.6132L913.344 48.7038L913.915 52.157ZM21.461 29.5578C20.7852 31.3688 21.7056 33.3848 23.5166 34.0605C25.3277 34.7362 27.3436 33.8159 28.0193 32.0048L21.461 29.5578ZM23.8343 43.0865C24.5123 41.2763 23.5946 39.2592 21.7844 38.5812C19.9742 37.9031 17.9571 38.8209 17.2791 40.6311L23.8343 43.0865ZM13.2158 51.8381C12.5838 53.6648 13.5522 55.6581 15.379 56.2902C17.2057 56.9222 19.199 55.9538 19.831 54.127L13.2158 51.8381ZM16.3877 65.1595C16.8713 63.288 15.7462 61.3787 13.8747 60.8951C12.0032 60.4114 10.094 61.5365 9.61033 63.408L16.3877 65.1595ZM7.20829 76.1429C6.84453 78.0414 8.08864 79.8752 9.9871 80.239C11.8856 80.6028 13.7195 79.3587 14.0832 77.4602L7.20829 76.1429ZM11.5075 90.9028C11.8712 89.0043 10.6271 87.1704 8.72867 86.8067C6.83021 86.4429 4.99631 87.687 4.63254 89.5855L11.5075 90.9028ZM2.82936 101.588C2.64738 103.513 4.05991 105.22 5.98432 105.402C7.90873 105.584 9.6163 104.172 9.79827 102.247L2.82936 101.588ZM8.86163 112.152C9.04361 110.228 7.63109 108.52 5.70668 108.338C3.78226 108.157 2.0747 109.569 1.89272 111.493L8.86163 112.152ZM1.05977 126.676C0.992072 128.608 2.50323 130.229 4.43505 130.296C6.36686 130.364 7.98778 128.853 8.05548 126.921L1.05977 126.676ZM7.353 146.967C7.4207 145.035 5.90953 143.414 3.97772 143.346C2.04591 143.279 0.424989 144.79 0.357292 146.722L7.353 146.967ZM0.839657 165.694C1.02539 167.618 2.73571 169.027 4.65976 168.841C6.58381 168.655 7.993 166.945 7.80727 165.021L0.839657 165.694ZM9.44638 182.001C9.26065 180.077 7.55033 178.668 5.62628 178.854C3.70223 179.039 2.29304 180.75 2.47877 182.674L9.44638 182.001ZM4.7989 197.129C5.28358 199 7.19344 200.124 9.06469 199.64C10.9359 199.155 12.06 197.245 11.5753 195.374L4.7989 197.129ZM14.3852 206.222C13.9005 204.351 11.9906 203.227 10.1194 203.712C8.24816 204.196 7.12413 206.106 7.60881 207.978L14.3852 206.222ZM13.7357 221.523C14.7329 223.179 16.8837 223.713 18.5396 222.715C20.1955 221.718 20.7294 219.567 19.7321 217.911L13.7357 221.523ZM28.396 232.297C27.3988 230.641 25.248 230.107 23.5921 231.105C21.9362 232.102 21.4023 234.253 22.3995 235.909L28.396 232.297ZM30.8118 250.029C31.7928 251.695 33.9383 252.25 35.6038 251.269C37.2694 250.288 37.8243 248.142 36.8433 246.477L30.8118 250.029ZM45.0388 260.391C44.0578 258.725 41.9123 258.17 40.2468 259.151C38.5812 260.132 38.0263 262.278 39.0073 263.943L45.0388 260.391ZM47.9954 278.356C49.0564 279.972 51.2263 280.422 52.8421 279.361C54.458 278.3 54.9078 276.13 53.8468 274.514L47.9954 278.356ZM63.4474 289.136C62.3864 287.52 60.2165 287.07 58.6007 288.131C56.9848 289.192 56.535 291.362 57.5959 292.978L63.4474 289.136ZM69.9495 307.521C71.3579 308.845 73.5729 308.777 74.8969 307.368C76.2208 305.96 76.1523 303.745 74.7439 302.421L69.9495 307.521ZM88.7934 315.628C87.385 314.304 85.17 314.372 83.846 315.781C82.5221 317.189 82.5906 319.404 83.999 320.728L88.7934 315.628ZM100.312 332.052C102.048 332.902 104.144 332.183 104.994 330.447C105.844 328.711 105.126 326.615 103.39 325.765L100.312 332.052ZM120.249 334.019C118.513 333.169 116.417 333.887 115.567 335.623C114.717 337.359 115.435 339.456 117.171 340.306L120.249 334.019ZM131.608 345.935C133.49 346.377 135.373 345.21 135.816 343.328C136.258 341.447 135.091 339.563 133.209 339.12L131.608 345.935ZM143.746 341.597C141.865 341.155 139.981 342.321 139.538 344.203C139.096 346.085 140.263 347.969 142.145 348.411L143.746 341.597ZM152.682 350.887C154.564 351.33 156.448 350.163 156.89 348.281C157.332 346.399 156.165 344.515 154.284 344.073L152.682 350.887ZM164.821 346.549C162.939 346.107 161.055 347.274 160.613 349.156C160.171 351.037 161.338 352.921 163.219 353.364L164.821 346.549ZM180.193 352.117C182.07 351.655 183.218 349.759 182.756 347.882C182.294 346.005 180.399 344.858 178.522 345.32L180.193 352.117ZM198.659 340.367C196.782 340.829 195.635 342.725 196.096 344.602C196.558 346.479 198.454 347.626 200.331 347.164L198.659 340.367ZM219.557 336.778C220.973 335.462 221.054 333.247 219.737 331.831C218.421 330.416 216.207 330.335 214.791 331.651L219.557 336.778ZM230.011 317.501C228.596 318.817 228.515 321.032 229.831 322.448C231.147 323.863 233.362 323.944 234.778 322.628L230.011 317.501ZM246.989 311.157C248.386 309.822 248.437 307.606 247.101 306.209C245.766 304.811 243.55 304.761 242.153 306.096L246.989 311.157ZM251.285 297.37C249.887 298.706 249.837 300.921 251.172 302.319C252.508 303.716 254.723 303.767 256.121 302.431L251.285 297.37ZM265.253 293.705C266.651 292.37 266.701 290.154 265.366 288.757C264.03 287.359 261.815 287.309 260.417 288.644L265.253 293.705ZM269.549 279.918C268.152 281.254 268.101 283.469 269.437 284.867C270.772 286.264 272.988 286.315 274.385 284.979L269.549 279.918ZM282.697 275.291C283.791 273.697 283.386 271.519 281.792 270.425C280.199 269.331 278.02 269.736 276.926 271.33L282.697 275.291ZM283.483 261.778C282.389 263.372 282.794 265.551 284.387 266.645C285.981 267.739 288.16 267.333 289.254 265.74L283.483 261.778ZM295.81 256.188C296.904 254.595 296.499 252.416 294.905 251.322C293.312 250.228 291.133 250.633 290.039 252.227L295.81 256.188ZM296.595 242.676C295.501 244.269 295.907 246.448 297.5 247.542C299.094 248.636 301.273 248.231 302.367 246.637L296.595 242.676ZM308.309 235.916C309.082 234.144 308.272 232.081 306.501 231.308C304.729 230.535 302.666 231.344 301.893 233.115L308.309 235.916ZM306.576 222.385C305.803 224.157 306.612 226.22 308.384 226.993C310.156 227.766 312.219 226.957 312.992 225.185L306.576 222.385ZM317.675 214.455C318.448 212.683 317.639 210.62 315.867 209.847C314.096 209.074 312.033 209.883 311.259 211.655L317.675 214.455ZM315.943 200.924C315.169 202.696 315.979 204.759 317.75 205.532C319.522 206.305 321.585 205.496 322.358 203.724L315.943 200.924ZM324.992 190.474C324.992 188.541 323.425 186.974 321.492 186.974C319.559 186.974 317.992 188.541 317.992 190.474H324.992ZM317.992 177.503C317.992 179.436 319.559 181.003 321.492 181.003C323.425 181.003 324.992 179.436 324.992 177.503H317.992ZM324.992 164.532C324.992 162.599 323.425 161.032 321.492 161.032C319.559 161.032 317.992 162.599 317.992 164.532H324.992ZM317.992 151.561C317.992 153.494 319.559 155.061 321.492 155.061C323.425 155.061 324.992 153.494 324.992 151.561H317.992ZM324.511 139.35C324.344 137.425 322.648 135.998 320.723 136.164C318.797 136.331 317.37 138.027 317.537 139.952L324.511 139.35ZM316.6 129.104C316.766 131.03 318.462 132.456 320.388 132.29C322.314 132.124 323.74 130.428 323.574 128.502L316.6 129.104ZM322.637 117.654C322.471 115.728 320.775 114.301 318.849 114.468C316.923 114.634 315.497 116.33 315.663 118.256L322.637 117.654ZM314.727 107.407C314.893 109.333 316.589 110.76 318.515 110.593C320.441 110.427 321.867 108.731 321.701 106.805L314.727 107.407ZM322.947 92.5132C323.288 90.6106 322.022 88.7914 320.12 88.45C318.217 88.1086 316.398 89.3742 316.057 91.2768L322.947 92.5132ZM319.569 71.7026C319.228 73.6053 320.493 75.4244 322.396 75.7658C324.298 76.1072 326.118 74.8416 326.459 72.939L319.569 71.7026ZM331.22 59.0119C332.271 57.3894 331.807 55.2223 330.185 54.1717C328.562 53.121 326.395 53.5846 325.345 55.2072L331.22 59.0119ZM332.37 44.3588C331.319 45.9813 331.782 48.1484 333.405 49.199C335.028 50.2497 337.195 49.7861 338.245 48.1636L332.37 44.3588ZM346.06 39.0921C347.506 37.8092 347.638 35.5971 346.355 34.1512C345.072 32.7053 342.86 32.5731 341.414 33.856L346.06 39.0921ZM351.249 25.1301C349.803 26.413 349.671 28.6252 350.954 30.0711C352.237 31.517 354.449 31.6492 355.895 30.3663L351.249 25.1301ZM364.808 24.0031C366.517 23.0996 367.17 20.9818 366.266 19.273C365.363 17.5642 363.245 16.9114 361.536 17.8149L364.808 24.0031ZM370.903 12.8624C369.194 13.766 368.541 15.8837 369.445 17.5925C370.348 19.3013 372.466 19.9541 374.175 19.0506L370.903 12.8624ZM384.026 15.198C385.886 14.6734 386.969 12.7399 386.444 10.8794C385.92 9.01901 383.986 7.93614 382.126 8.46079L384.026 15.198ZM393.834 5.15912C391.973 5.68376 390.891 7.61726 391.415 9.47769C391.94 11.3381 393.873 12.421 395.734 11.8963L393.834 5.15912ZM407.285 9.77219C409.21 9.59271 410.624 7.88697 410.445 5.96233C410.265 4.03768 408.56 2.62295 406.635 2.80243L407.285 9.77219ZM419.28 1.62326C417.355 1.80274 415.94 3.50848 416.12 5.43312C416.299 7.35777 418.005 8.7725 419.93 8.59302L419.28 1.62326ZM432.061 9.25349C433.96 9.61616 435.793 8.37098 436.155 6.47231C436.518 4.57364 435.273 2.74046 433.374 2.3778L432.061 9.25349ZM446.955 4.97197C445.057 4.6093 443.224 5.85448 442.861 7.75315C442.498 9.65182 443.743 11.485 445.642 11.8477L446.955 4.97197ZM457.733 14.9184C459.569 15.5223 461.547 14.5232 462.151 12.687C462.755 10.8507 461.756 8.87263 459.92 8.26875L457.733 14.9184ZM471.394 12.0421C469.557 11.4382 467.579 12.4373 466.975 14.2735C466.371 16.1097 467.37 18.0879 469.207 18.6917L471.394 12.0421ZM478.903 23.3541C480.514 24.4225 482.686 23.9828 483.754 22.3719C484.822 20.761 484.383 18.589 482.772 17.5206L478.903 23.3541ZM492.372 23.8881C490.761 22.8197 488.589 23.2594 487.521 24.8703C486.453 26.4812 486.892 28.6532 488.503 29.7216L492.372 23.8881ZM494.975 36.1085C496.011 37.7407 498.173 38.2246 499.806 37.1891C501.438 36.1537 501.922 33.9911 500.886 32.3588L494.975 36.1085ZM506.272 40.8488C505.237 39.2165 503.074 38.7327 501.442 39.7682C499.809 40.8036 499.326 42.9662 500.361 44.5985L506.272 40.8488ZM503.616 53.5865C503.949 55.4905 505.763 56.7635 507.667 56.4299C509.571 56.0963 510.844 54.2824 510.511 52.3784L503.616 53.5865ZM512.618 64.4059C512.284 62.5019 510.47 61.2289 508.566 61.5625C506.662 61.8961 505.389 63.71 505.723 65.614L512.618 64.4059ZM505.727 76.1737C505.38 78.0754 506.641 79.8981 508.543 80.2449C510.444 80.5917 512.267 79.3312 512.614 77.4296L505.727 76.1737ZM510.506 88.9855C510.853 87.0838 509.593 85.2611 507.691 84.9143C505.789 84.5675 503.967 85.828 503.62 87.7296L510.506 88.9855ZM501.107 98.8866C500.605 100.753 501.712 102.673 503.578 103.175C505.445 103.677 507.365 102.571 507.867 100.704L501.107 98.8866ZM504.823 112.024C505.325 110.158 504.219 108.238 502.352 107.736C500.485 107.234 498.565 108.34 498.063 110.207L504.823 112.024ZM494.738 124.557C494.346 126.45 495.563 128.301 497.456 128.693C499.349 129.085 501.201 127.867 501.592 125.975L494.738 124.557ZM498.08 142.955C498.472 141.062 497.255 139.21 495.362 138.818C493.469 138.427 491.617 139.644 491.225 141.537L498.08 142.955ZM488.82 158.621C488.681 160.549 490.132 162.224 492.06 162.363C493.988 162.502 495.663 161.051 495.802 159.123L488.82 158.621ZM494.631 175.396C494.77 173.468 493.319 171.792 491.391 171.653C489.463 171.515 487.788 172.965 487.649 174.893L494.631 175.396ZM487.65 191.554C487.79 193.482 489.467 194.931 491.395 194.79C493.323 194.649 494.772 192.972 494.631 191.044L487.65 191.554ZM495.802 207.081C495.661 205.153 493.984 203.704 492.056 203.845C490.128 203.986 488.68 205.663 488.82 207.591L495.802 207.081ZM492.105 225.389C492.633 227.249 494.568 228.328 496.427 227.801C498.287 227.273 499.367 225.338 498.839 223.479L492.105 225.389ZM503.991 241.638C503.463 239.778 501.528 238.698 499.668 239.226C497.809 239.753 496.729 241.689 497.257 243.548L503.991 241.638ZM505.613 261.126C506.731 262.703 508.916 263.074 510.493 261.956C512.069 260.838 512.441 258.653 511.323 257.077L505.613 261.126ZM521.86 271.934C520.742 270.357 518.557 269.986 516.98 271.104C515.404 272.222 515.032 274.407 516.15 275.984L521.86 271.934ZM526.156 288.133C527.537 289.485 529.753 289.463 531.106 288.082C532.458 286.702 532.436 284.486 531.055 283.133L526.156 288.133ZM539.719 291.623C538.339 290.27 536.123 290.292 534.77 291.673C533.417 293.054 533.439 295.27 534.82 296.623L539.719 291.623ZM545.745 305.008C547.394 306.017 549.548 305.499 550.558 303.851C551.567 302.202 551.049 300.047 549.4 299.038L545.745 305.008ZM561.342 306.349C559.694 305.34 557.539 305.858 556.53 307.507C555.52 309.155 556.039 311.31 557.687 312.319L561.342 306.349ZM569.868 318.877C571.622 319.69 573.703 318.927 574.516 317.173C575.328 315.419 574.565 313.338 572.811 312.526L569.868 318.877ZM584.519 317.95C582.765 317.137 580.685 317.9 579.872 319.654C579.059 321.408 579.823 323.489 581.576 324.301L584.519 317.95ZM595.072 329.001C596.946 329.473 598.849 328.336 599.32 326.461C599.792 324.587 598.656 322.684 596.781 322.212L595.072 329.001ZM610.831 325.75C608.956 325.278 607.054 326.415 606.582 328.289C606.11 330.164 607.247 332.066 609.121 332.538L610.831 325.75ZM627.07 334.413C629.003 334.413 630.57 332.846 630.57 330.913C630.57 328.98 629.003 327.413 627.07 327.413V334.413ZM647.207 327.413C645.274 327.413 643.707 328.98 643.707 330.913C643.707 332.846 645.274 334.413 647.207 334.413V327.413ZM666.822 329.609C668.511 328.669 669.119 326.538 668.179 324.849C667.24 323.159 665.109 322.552 663.419 323.491L666.822 329.609ZM679.108 314.765C677.419 315.705 676.811 317.836 677.75 319.525C678.69 321.215 680.821 321.822 682.51 320.883L679.108 314.765ZM695.121 312.09C696.513 310.749 696.554 308.534 695.213 307.142C693.872 305.749 691.657 305.708 690.264 307.049L695.121 312.09ZM698.343 299.267C696.951 300.608 696.909 302.823 698.251 304.216C699.592 305.608 701.807 305.649 703.199 304.308L698.343 299.267ZM711.278 296.525C712.67 295.184 712.711 292.969 711.37 291.577C710.029 290.184 707.814 290.143 706.421 291.484L711.278 296.525ZM714.5 283.702C713.108 285.043 713.066 287.258 714.408 288.651C715.749 290.043 717.964 290.084 719.356 288.743L714.5 283.702ZM727.738 278.117C728.765 276.479 728.269 274.319 726.631 273.292C724.993 272.266 722.833 272.762 721.807 274.4L727.738 278.117ZM729.417 262.254C728.39 263.892 728.886 266.052 730.524 267.079C732.162 268.105 734.322 267.609 735.349 265.971L729.417 262.254ZM742.959 253.826C743.985 252.188 743.489 250.028 741.851 249.001C740.213 247.975 738.053 248.471 737.027 250.109L742.959 253.826ZM744.637 237.964C743.611 239.602 744.107 241.761 745.745 242.788C747.383 243.814 749.543 243.318 750.569 241.68L744.637 237.964ZM756.829 227.317C757.347 225.454 756.257 223.525 754.394 223.007C752.532 222.49 750.603 223.58 750.085 225.442L756.829 227.317ZM754.183 210.702C753.665 212.565 754.755 214.494 756.617 215.012C758.48 215.53 760.409 214.44 760.927 212.577L754.183 210.702ZM765.025 197.838C765.542 195.975 764.452 194.046 762.59 193.528C760.728 193.01 758.798 194.1 758.28 195.963L765.025 197.838ZM762.378 181.223C761.86 183.085 762.951 185.015 764.813 185.533C766.675 186.05 768.605 184.96 769.122 183.098L762.378 181.223ZM774.326 170.614C775.308 168.949 774.755 166.803 773.09 165.821C771.425 164.839 769.279 165.393 768.297 167.058L774.326 170.614ZM775.322 155.148C774.34 156.813 774.893 158.959 776.558 159.941C778.223 160.923 780.369 160.369 781.351 158.704L775.322 155.148ZM788.376 146.795C789.358 145.13 788.804 142.984 787.139 142.002C785.474 141.02 783.329 141.574 782.347 143.238L788.376 146.795ZM789.371 131.329C788.389 132.994 788.943 135.14 790.608 136.122C792.273 137.104 794.419 136.55 795.401 134.885L789.371 131.329ZM803.268 124.341C804.58 122.922 804.494 120.708 803.076 119.395C801.657 118.082 799.442 118.168 798.13 119.587L803.268 124.341ZM807.73 109.21C806.417 110.629 806.503 112.844 807.922 114.156C809.341 115.469 811.555 115.383 812.868 113.964L807.73 109.21ZM822.469 103.587C823.781 102.169 823.695 99.9541 822.277 98.6414C820.858 97.3287 818.643 97.4147 817.331 98.8336L822.469 103.587ZM826.931 88.4569C825.618 89.8757 825.704 92.0901 827.123 93.4029C828.542 94.7156 830.757 94.6296 832.069 93.2107L826.931 88.4569ZM842.574 84.3062C844.179 83.2287 844.606 81.0542 843.529 79.4494C842.451 77.8446 840.276 77.4171 838.672 78.4947L842.574 84.3062ZM851.316 70.0046C849.711 71.0822 849.284 73.2566 850.362 74.8614C851.439 76.4663 853.614 76.8937 855.218 75.8162L851.316 70.0046ZM867.486 68.8998C869.243 68.0952 870.016 66.0181 869.211 64.2606C868.407 62.503 866.33 61.7305 864.572 62.5351L867.486 68.8998ZM877.451 56.6392C875.693 57.4438 874.921 59.5209 875.725 61.2785C876.53 63.036 878.607 63.8086 880.365 63.0039L877.451 56.6392ZM893.059 59.1477C894.966 58.8328 896.257 57.0315 895.942 55.1243C895.627 53.2171 893.826 51.9263 891.919 52.2412L893.059 59.1477ZM906.203 49.8829C904.295 50.1978 903.005 51.9991 903.319 53.9063C903.634 55.8135 905.436 57.1043 907.343 56.7894L906.203 49.8829ZM921.114 56.7961C923.025 57.0877 924.81 55.775 925.102 53.8641C925.393 51.9533 924.081 50.1678 922.17 49.8762L921.114 56.7961ZM937.624 52.2345C935.713 51.9429 933.928 53.2556 933.636 55.1665C933.345 57.0774 934.657 58.8628 936.568 59.1544L937.624 52.2345ZM948.459 62.5044C950.201 63.3418 952.292 62.6084 953.13 60.8662C953.967 59.124 953.234 57.0328 951.491 56.1954L948.459 62.5044ZM961.794 61.1479C960.052 60.3105 957.961 61.0439 957.124 62.7861C956.286 64.5283 957.02 66.6194 958.762 67.4569L961.794 61.1479ZM969.065 72.4094C970.807 73.2468 972.898 72.5134 973.736 70.7712C974.573 69.0291 973.84 66.9379 972.097 66.1004L969.065 72.4094ZM982.4 71.0529C980.658 70.2155 978.567 70.9489 977.73 72.6911C976.892 74.4333 977.626 76.5245 979.368 77.3619L982.4 71.0529ZM990.498 86.6151C991.815 88.03 994.03 88.1093 995.445 86.7923C996.86 85.4752 996.939 83.2606 995.622 81.8457L990.498 86.6151ZM1009.67 96.9391C1008.35 95.5242 1006.14 95.4449 1004.73 96.7619C1003.31 98.0789 1003.23 100.294 1004.55 101.708L1009.67 96.9391ZM1013.58 114.844C1014.31 116.636 1016.35 117.502 1018.14 116.778C1019.93 116.053 1020.8 114.013 1020.07 112.221L1013.58 114.844ZM1025.46 125.546C1024.73 123.754 1022.69 122.888 1020.9 123.612C1019.11 124.337 1018.24 126.377 1018.97 128.169L1025.46 125.546ZM1024.35 141.494C1025.08 143.286 1027.12 144.151 1028.91 143.427C1030.7 142.703 1031.57 140.662 1030.84 138.87L1024.35 141.494ZM1036.23 152.195C1035.51 150.403 1033.46 149.537 1031.67 150.262C1029.88 150.986 1029.02 153.026 1029.74 154.818L1036.23 152.195ZM1032.35 166.169C1032.41 168.101 1034.02 169.621 1035.96 169.563C1037.89 169.506 1039.41 167.893 1039.35 165.96L1032.35 166.169ZM1039.7 177.752C1039.65 175.82 1038.03 174.3 1036.1 174.358C1034.17 174.416 1032.65 176.028 1032.71 177.961L1039.7 177.752ZM1033.06 189.752C1033.11 191.685 1034.73 193.204 1036.66 193.147C1038.59 193.089 1040.11 191.476 1040.05 189.544L1033.06 189.752ZM1040.41 201.336C1040.35 199.404 1038.73 197.884 1036.8 197.941C1034.87 197.999 1033.35 199.612 1033.41 201.544L1040.41 201.336ZM1034.37 213.734C1034.62 215.652 1036.37 217.007 1038.29 216.762C1040.2 216.517 1041.56 214.764 1041.32 212.847L1034.37 213.734ZM1042.84 224.756C1042.59 222.839 1040.84 221.483 1038.92 221.728C1037 221.973 1035.65 223.726 1035.89 225.644L1042.84 224.756ZM1037.42 237.553C1037.66 239.471 1039.41 240.827 1041.33 240.581C1043.25 240.336 1044.6 238.583 1044.36 236.666L1037.42 237.553ZM1045.88 248.576C1045.64 246.658 1043.88 245.302 1041.97 245.548C1040.05 245.793 1038.69 247.546 1038.94 249.463L1045.88 248.576ZM1044.83 263.757C1045.9 265.364 1048.07 265.797 1049.68 264.724C1051.29 263.651 1051.72 261.478 1050.65 259.87L1044.83 263.757ZM1059.78 273.548C1058.71 271.941 1056.53 271.508 1054.93 272.581C1053.32 273.654 1052.88 275.827 1053.96 277.435L1059.78 273.548ZM1063.09 291.114C1064.16 292.721 1066.34 293.154 1067.94 292.081C1069.55 291.008 1069.99 288.834 1068.91 287.227L1063.09 291.114ZM1078.04 300.905C1076.97 299.298 1074.8 298.864 1073.19 299.938C1071.58 301.011 1071.15 303.184 1072.22 304.792L1078.04 300.905ZM28.5611 28.0646C28.4583 28.1422 27.6086 28.8158 26.3072 28.7399C25.516 28.6937 24.7521 28.3762 24.155 27.8241C23.6154 27.3253 23.3626 26.7768 23.2446 26.4428C23.0293 25.8337 23.0518 25.3324 23.0551 25.239C23.0612 25.0671 23.0808 24.9491 23.0854 24.9215C23.0943 24.8688 23.0672 25.014 22.9116 25.5002C22.6317 26.375 22.1343 27.7532 21.461 29.5578L28.0193 32.0048C28.6888 30.2106 29.2414 28.6872 29.5786 27.6336C29.7315 27.1557 29.9047 26.5799 29.9882 26.084C30.0115 25.9456 30.0419 25.7342 30.0507 25.4867C30.0567 25.3178 30.0737 24.7589 29.8446 24.1106C29.7197 23.757 29.4577 23.1935 28.9071 22.6843C28.2988 22.1219 27.5216 21.7988 26.7149 21.7517C25.3826 21.674 24.4933 22.3647 24.3419 22.479L28.5611 28.0646ZM17.2791 40.6311C15.9282 44.2375 14.5086 48.1017 13.2158 51.8381L19.831 54.127C21.0961 50.4708 22.4925 46.6687 23.8343 43.0865L17.2791 40.6311ZM9.61033 63.408C8.9883 65.815 8.52344 68.0982 8.43754 69.915L15.4297 70.2456C15.4803 69.1766 15.7919 67.465 16.3877 65.1595L9.61033 63.408ZM8.49617 69.4216L7.20829 76.1429L14.0832 77.4602L15.3711 70.7389L8.49617 69.4216ZM4.63254 89.5855L3.34467 96.3067L10.2196 97.6241L11.5075 90.9028L4.63254 89.5855ZM3.29768 96.6359L2.82936 101.588L9.79827 102.247L10.2666 97.2949L3.29768 96.6359ZM1.89272 111.493L1.42441 116.446L8.39332 117.105L8.86163 112.152L1.89272 111.493ZM1.41101 116.653L1.05977 126.676L8.05548 126.921L8.40671 116.898L1.41101 116.653ZM0.357292 146.722L0.00605345 156.745L7.00176 156.99L7.353 146.967L0.357292 146.722ZM0.0201004 157.204L0.839657 165.694L7.80727 165.021L6.98771 156.531L0.0201004 157.204ZM2.47877 182.674L3.29833 191.164L10.2659 190.491L9.44638 182.001L2.47877 182.674ZM3.39395 191.705L4.7989 197.129L11.5753 195.374L10.1703 189.95L3.39395 191.705ZM7.60881 207.978L9.01376 213.402L15.7901 211.647L14.3852 206.222L7.60881 207.978ZM9.40371 214.33L13.7357 221.523L19.7321 217.911L15.4002 210.718L9.40371 214.33ZM22.3995 235.909L26.7315 243.102L32.728 239.49L28.396 232.297L22.3995 235.909ZM26.714 243.072L30.8118 250.029L36.8433 246.477L32.7455 239.52L26.714 243.072ZM39.0073 263.943L43.1051 270.901L49.1366 267.348L45.0388 260.391L39.0073 263.943ZM43.1952 271.045L47.9954 278.356L53.8468 274.514L49.0466 267.203L43.1952 271.045ZM57.5959 292.978L62.3962 300.289L68.2476 296.447L63.4474 289.136L57.5959 292.978ZM62.9247 300.918L69.9495 307.521L74.7439 302.421L67.7191 295.818L62.9247 300.918ZM83.999 320.728L91.0238 327.331L95.8182 322.231L88.7934 315.628L83.999 320.728ZM91.882 327.925L100.312 332.052L103.39 325.765L94.96 321.638L91.882 327.925ZM117.171 340.306L125.601 344.433L128.679 338.146L120.249 334.019L117.171 340.306ZM126.339 344.697L131.608 345.935L133.209 339.12L127.941 337.882L126.339 344.697ZM142.145 348.411L152.682 350.887L154.284 344.073L143.746 341.597L142.145 348.411ZM163.219 353.364L168.488 354.602L170.089 347.787L164.821 346.549L163.219 353.364ZM170.124 354.593L180.193 352.117L178.522 345.32L168.453 347.796L170.124 354.593ZM200.331 347.164L210.4 344.688L208.728 337.891L198.659 340.367L200.331 347.164ZM211.947 343.853L219.557 336.778L214.791 331.651L207.181 338.726L211.947 343.853ZM234.778 322.628L242.388 315.553L237.622 310.426L230.011 317.501L234.778 322.628ZM242.423 315.52L246.989 311.157L242.153 306.096L237.587 310.459L242.423 315.52ZM256.121 302.431L265.253 293.705L260.417 288.644L251.285 297.37L256.121 302.431ZM274.385 284.979L278.951 280.617L274.116 275.555L269.549 279.918L274.385 284.979ZM279.419 280.067L282.697 275.291L276.926 271.33L273.648 276.105L279.419 280.067ZM289.254 265.74L295.81 256.188L290.039 252.227L283.483 261.778L289.254 265.74ZM302.367 246.637L305.645 241.861L299.874 237.9L296.595 242.676L302.367 246.637ZM305.967 241.281L308.309 235.916L301.893 233.115L299.551 238.481L305.967 241.281ZM312.992 225.185L317.675 214.455L311.259 211.655L306.576 222.385L312.992 225.185ZM322.358 203.724L324.7 198.359L318.284 195.559L315.943 200.924L322.358 203.724ZM324.992 196.959V190.474H317.992V196.959H324.992ZM324.992 177.503V164.532H317.992V177.503H324.992ZM324.992 151.561V145.076H317.992V151.561H324.992ZM324.979 144.775L324.511 139.35L317.537 139.952L318.005 145.377L324.979 144.775ZM323.574 128.502L322.637 117.654L315.663 118.256L316.6 129.104L323.574 128.502ZM321.701 106.805L321.232 101.381L314.258 101.983L314.727 107.407L321.701 106.805ZM321.19 102.3L322.947 92.5132L316.057 91.2768L314.3 101.064L321.19 102.3ZM326.459 72.939L328.215 63.1519L321.325 61.9156L319.569 71.7026L326.459 72.939ZM327.708 64.4361L331.22 59.0119L325.345 55.2072L321.832 60.6313L327.708 64.4361ZM338.245 48.1636L341.758 42.7394L335.882 38.9346L332.37 44.3588L338.245 48.1636ZM341.143 43.455L346.06 39.0921L341.414 33.856L336.497 38.2189L341.143 43.455ZM355.895 30.3663L360.812 26.0033L356.166 20.7672L351.249 25.1301L355.895 30.3663ZM360.125 26.4794L364.808 24.0031L361.536 17.8149L356.853 20.2912L360.125 26.4794ZM374.175 19.0506L378.858 16.5743L375.586 10.3861L370.903 12.8624L374.175 19.0506ZM378.172 16.8489L384.026 15.198L382.126 8.46079L376.272 10.1116L378.172 16.8489ZM395.734 11.8963L401.588 10.2455L399.688 3.50828L393.834 5.15912L395.734 11.8963ZM400.963 10.3618L407.285 9.77219L406.635 2.80243L400.313 3.39201L400.963 10.3618ZM419.93 8.59302L426.252 8.00343L425.602 1.03367L419.28 1.62326L419.93 8.59302ZM425.27 7.9564L432.061 9.25349L433.374 2.3778L426.584 1.08071L425.27 7.9564ZM445.642 11.8477L452.433 13.1447L453.746 6.26906L446.955 4.97197L445.642 11.8477ZM451.996 13.0317L457.733 14.9184L459.92 8.26875L454.183 6.38208L451.996 13.0317ZM469.207 18.6917L474.944 20.5784L477.13 13.9288L471.394 12.0421L469.207 18.6917ZM474.102 20.1704L478.903 23.3541L482.772 17.5206L477.972 14.3368L474.102 20.1704ZM488.503 29.7216L493.303 32.9054L497.173 27.0719L492.372 23.8881L488.503 29.7216ZM492.283 31.8635L494.975 36.1085L500.886 32.3588L498.194 28.1138L492.283 31.8635ZM500.361 44.5985L503.054 48.8435L508.965 45.0938L506.272 40.8488L500.361 44.5985ZM502.562 47.5727L503.616 53.5865L510.511 52.3784L509.457 46.3646L502.562 47.5727ZM505.723 65.614L506.777 71.6278L513.672 70.4197L512.618 64.4059L505.723 65.614ZM506.781 70.3958L505.727 76.1737L512.614 77.4296L513.667 71.6517L506.781 70.3958ZM503.62 87.7296L502.566 93.5075L509.453 94.7634L510.506 88.9855L503.62 87.7296ZM502.629 93.2266L501.107 98.8866L507.867 100.704L509.389 95.0444L502.629 93.2266ZM498.063 110.207L496.541 115.867L503.301 117.684L504.823 112.024L498.063 110.207ZM496.494 116.067L494.738 124.557L501.592 125.975L503.349 117.485L496.494 116.067ZM491.225 141.537L489.469 150.027L496.324 151.445L498.08 142.955L491.225 141.537ZM489.405 150.484L488.82 158.621L495.802 159.123L496.387 150.987L489.405 150.484ZM487.649 174.893L487.064 183.03L494.046 183.532L494.631 175.396L487.649 174.893ZM487.064 183.536L487.65 191.554L494.631 191.044L494.046 183.026L487.064 183.536ZM488.82 207.591L489.406 215.609L496.387 215.099L495.802 207.081L488.82 207.591ZM489.529 216.309L492.105 225.389L498.839 223.479L496.264 214.399L489.529 216.309ZM497.257 243.548L499.832 252.628L506.567 250.717L503.991 241.638L497.257 243.548ZM500.345 253.697L505.613 261.126L511.323 257.077L506.054 249.648L500.345 253.697ZM516.15 275.984L521.419 283.412L527.129 279.363L521.86 271.934L516.15 275.984ZM521.824 283.887L526.156 288.133L531.055 283.133L526.723 278.888L521.824 283.887ZM534.82 296.623L539.152 300.868L544.051 295.868L539.719 291.623L534.82 296.623ZM539.774 301.353L545.745 305.008L549.4 299.038L543.429 295.383L539.774 301.353ZM557.687 312.319L563.658 315.974L567.313 310.004L561.342 306.349L557.687 312.319ZM564.014 316.165L569.868 318.877L572.811 312.526L566.957 309.814L564.014 316.165ZM581.576 324.301L587.43 327.014L590.373 320.662L584.519 317.95L581.576 324.301ZM588.047 327.232L595.072 329.001L596.781 322.212L589.756 320.444L588.047 327.232ZM609.121 332.538L616.146 334.307L617.855 327.519L610.831 325.75L609.121 332.538ZM617.001 334.413H627.07V327.413H617.001V334.413ZM647.207 334.413H657.276V327.413H647.207V334.413ZM658.977 333.972L666.822 329.609L663.419 323.491L655.575 327.854L658.977 333.972ZM682.51 320.883L690.355 316.52L686.952 310.402L679.108 314.765L682.51 320.883ZM691.082 315.982L695.121 312.09L690.264 307.049L686.225 310.94L691.082 315.982ZM703.199 304.308L711.278 296.525L706.421 291.484L698.343 299.267L703.199 304.308ZM719.356 288.743L723.396 284.852L718.539 279.81L714.5 283.702L719.356 288.743ZM723.933 284.189L727.738 278.117L721.807 274.4L718.002 280.473L723.933 284.189ZM735.349 265.971L742.959 253.826L737.027 250.109L729.417 262.254L735.349 265.971ZM750.569 241.68L754.374 235.608L748.442 231.891L744.637 237.964L750.569 241.68ZM754.78 234.687L756.829 227.317L750.085 225.442L748.036 232.812L754.78 234.687ZM760.927 212.577L765.025 197.838L758.28 195.963L754.183 210.702L760.927 212.577ZM769.122 183.098L771.171 175.728L764.427 173.853L762.378 181.223L769.122 183.098ZM770.814 176.569L774.326 170.614L768.297 167.058L764.785 173.013L770.814 176.569ZM781.351 158.704L788.376 146.795L782.347 143.238L775.322 155.148L781.351 158.704ZM795.401 134.885L798.913 128.93L792.884 125.374L789.371 131.329L795.401 134.885ZM798.467 129.529L803.268 124.341L798.13 119.587L793.329 124.775L798.467 129.529ZM812.868 113.964L822.469 103.587L817.331 98.8336L807.73 109.21L812.868 113.964ZM832.069 93.2107L836.87 88.0224L831.731 83.2685L826.931 88.4569L832.069 93.2107ZM836.251 88.5512L842.574 84.3062L838.672 78.4947L832.349 82.7397L836.251 88.5512ZM855.218 75.8162L861.541 71.5712L857.639 65.7596L851.316 70.0046L855.218 75.8162ZM861.047 71.8478L867.486 68.8998L864.572 62.5351L858.133 65.483L861.047 71.8478ZM880.365 63.0039L886.804 60.056L883.89 53.6913L877.451 56.6392L880.365 63.0039ZM885.917 60.3269L893.059 59.1477L891.919 52.2412L884.777 53.4204L885.917 60.3269ZM907.343 56.7894L914.485 55.6103L913.344 48.7038L906.203 49.8829L907.343 56.7894ZM913.387 55.617L921.114 56.7961L922.17 49.8762L914.443 48.6971L913.387 55.617ZM936.568 59.1544L944.296 60.3336L945.352 53.4137L937.624 52.2345L936.568 59.1544ZM943.307 60.0281L948.459 62.5044L951.491 56.1954L946.34 53.7191L943.307 60.0281ZM958.762 67.4569L969.065 72.4094L972.097 66.1004L961.794 61.1479L958.762 67.4569ZM979.368 77.3619L984.519 79.8382L987.552 73.5292L982.4 71.0529L979.368 77.3619ZM983.474 79.0684L990.498 86.6151L995.622 81.8457L988.597 74.299L983.474 79.0684ZM1004.55 101.708L1011.57 109.255L1016.7 104.486L1009.67 96.9391L1004.55 101.708ZM1010.89 108.182L1013.58 114.844L1020.07 112.221L1017.38 105.559L1010.89 108.182ZM1018.97 128.169L1024.35 141.494L1030.84 138.87L1025.46 125.546L1018.97 128.169ZM1029.74 154.818L1032.43 161.48L1038.92 158.857L1036.23 152.195L1029.74 154.818ZM1032.18 160.273L1032.35 166.169L1039.35 165.96L1039.18 160.065L1032.18 160.273ZM1032.71 177.961L1033.06 189.752L1040.05 189.544L1039.7 177.752L1032.71 177.961ZM1033.41 201.544L1033.58 207.44L1040.58 207.232L1040.41 201.336L1033.41 201.544ZM1033.61 207.779L1034.37 213.734L1041.32 212.847L1040.55 206.892L1033.61 207.779ZM1035.89 225.644L1037.42 237.553L1044.36 236.666L1042.84 224.756L1035.89 225.644ZM1038.94 249.463L1039.7 255.418L1046.64 254.53L1045.88 248.576L1038.94 249.463ZM1040.26 256.917L1044.83 263.757L1050.65 259.87L1046.08 253.031L1040.26 256.917ZM1053.96 277.435L1063.09 291.114L1068.91 287.227L1059.78 273.548L1053.96 277.435ZM1072.22 304.792L1076.79 311.631L1082.61 307.744L1078.04 300.905L1072.22 304.792Z" fill="#546B54"/>
</svg>
